<?xml version="1.0" encoding="utf-8"?>
<!-- Uploaded to: SVG Repo, www.svgrepo.com, Generator: SVG Repo Mixer Tools -->
<svg width="800px" height="800px" viewBox="0 0 1024 1024" class="icon"  version="1.1" xmlns="http://www.w3.org/2000/svg"><path d="M624.091894 890.30003c-107.648231 0-205.768186-63.702049-249.989793-162.271489l-4.189739-9.354217H129.12525V134.586654h744.148591V503.089126l1.361768 3.059369c15.598893 35.177628 23.502264 72.331355 23.502264 110.415794 0 150.938103-122.939959 273.735742-274.045979 273.735741z" fill="#FFFFFF" /><path d="M889.10618 499.73283V134.586654c0-8.783912-7.111907-15.833363-15.833363-15.833362H129.12525a15.784216 15.784216 0 0 0-15.833363 15.833362v584.086647c0 8.721455 7.051498 15.833363 15.833363 15.833362h230.536996c45.300782 100.995025 146.670549 171.625706 264.429648 171.625706 159.874574 0 289.879342-129.880877 289.879341-289.569104 0-41.560529-8.999952-81.051786-24.865055-116.830435z" fill="#27323A" /><path d="M754.279937 145.099909h63.331403v63.331403h-63.331403zM644.810213 145.099909h63.331403v63.331403h-63.331403z" fill="#FFFFFF" /><path d="M479.242837 486.002528c-10.325884 34.882749-16.510151 74.218376-17.749052 116.210984h-79.040876c2.536164-42.613083 16.01971-82.254851 37.91345-116.210984h58.876478zM444.732782 454.335802c21.212856-23.315917 46.81818-42.489193 75.577071-56.156014-11.504376 16.140528-21.523093 35.130529-29.993696 56.156014h-45.583375zM382.639256 633.87819h78.977395c1.361767 41.130497 7.546035 79.662374 17.812533 113.861167h-58.755659c-21.524117-33.271154-35.067048-72.112243-38.034269-113.861167zM445.289776 779.406083h45.273137c8.410194 20.7818 18.366455 39.582383 29.74694 55.602092-28.572544-13.607436-53.930088-32.530885-75.020077-55.602092zM608.258531 857.829555c-7.299278-0.434127-14.474667-1.237877-21.646983-2.349817-23.74902-14.100949-44.778601-41.004559-60.922201-76.073655h82.569184v78.423472zM608.258531 747.739357h-95.060585c-11.257619-33.768762-18.369527-72.546371-19.91457-113.861167h114.975155v113.861167zM608.258531 602.212488H493.159486c1.361767-42.115475 8.473675-81.821748 19.851089-116.210984h95.247956v116.210984zM608.258531 454.335802h-82.87635c16.202985-35.377286 37.356456-62.464172 61.229367-76.628601a250.843714 250.843714 0 0 1 21.646983-2.413298v79.041899z" fill="#79CCBF" /><path d="M334.272961 616.564289c0 24.705329 3.463804 48.578239 9.31019 71.49484h-183.101413V237.74822h681.931176v188.943703c-53.188795-60.95087-131.210904-99.69981-218.319996-99.69981-159.816213 0-289.819956 129.941287-289.819957 289.572176z" fill="#F4CE73" /><path d="M639.924232 602.212488v-116.210984h96.355801c11.443966 34.389236 18.555874 74.095509 19.85416 116.210984H639.924232zM756.071736 633.87819c-1.545043 41.314797-8.720431 80.092406-19.974979 113.861167h-96.172525V633.87819h116.147504zM639.924232 454.335802v-79.040875c7.916681 0.493513 15.645992 1.422177 23.252436 2.660054 23.689635 14.224839 44.71512 41.251316 60.798311 76.380821h-84.050747zM729.602253 398.984562a242.076183 242.076183 0 0 1 73.844657 55.352264h-44.404883c-8.349785-20.655863-18.182156-39.335626-29.439774-55.352264zM663.176668 855.232982a236.758123 236.758123 0 0 1-23.252436 2.596573v-78.423472h83.74051c-16.01971 34.82234-36.922329 61.66247-60.488074 75.826899zM729.602253 834.203401c11.133729-15.892748 20.902619-34.325756 29.193018-54.797318h44.158126a242.715088 242.715088 0 0 1-73.351144 54.797318zM827.507191 747.739357h-57.581263c10.206089-34.198794 16.390356-72.73067 17.812533-113.861167h77.866479c-2.968244 41.748924-16.514246 80.590014-38.097749 113.861167zM787.800918 602.212488c-1.174396-41.992609-7.359688-81.327211-17.752123-116.210984h57.828019c21.89374 33.955109 35.377286 73.597901 37.849969 116.210984H787.800918z" fill="#79CCBF" /></svg>