<?xml version="1.0" encoding="iso-8859-1"?>
<!-- Uploaded to: SVG Repo, www.svgrepo.com, Generator: SVG Repo Mixer Tools -->
<svg version="1.1" id="Layer_1" xmlns="http://www.w3.org/2000/svg" xmlns:xlink="http://www.w3.org/1999/xlink" 
	 viewBox="0 0 512 512" xml:space="preserve">
<path style="fill:#73C470;" d="M503.393,153.6V56.752c0-11.191-9.074-20.262-20.263-20.262H28.869
	c-11.191,0-20.262,9.072-20.262,20.262v28.406v15.788v28.406v281.702v28.406v15.788v28.406c0,11.191,9.072,20.262,20.262,20.262
	h454.26c11.19,0,20.263-9.072,20.263-20.262v-28.406V439.46v-28.406V190.792v-12.237"/>
<rect x="282.419" y="77.899" style="fill:#EBF25F;" width="178.931" height="178.931"/>
<rect x="327.152" y="122.632" style="fill:#698F92;" width="89.465" height="89.465"/>
<circle style="fill:#547475;" cx="371.884" cy="166.492" r="15.809"/>
<polyline style="fill:#F74848;" points="238.23,315.206 461.355,315.206 461.355,360.477 135.83,360.477 135.83,315.206 
	213.438,315.206 "/>
<rect x="282.419" y="8.084" style="fill:#547475;" width="178.931" height="28.406"/>
<g>
	<rect x="8.607" y="77.899" style="fill:#EBF25F;" width="28.406" height="178.931"/>
	<rect x="8.607" y="315.209" style="fill:#EBF25F;" width="28.406" height="129.347"/>
</g>
<polyline style="fill:#F74848;" points="358.955,444.553 135.83,444.553 135.83,399.281 461.355,399.281 461.355,444.553 
	383.747,444.553 "/>
<g>
	<path style="fill:#231F20;" d="M503.393,161.684c4.466,0,8.084-3.62,8.084-8.084V56.752c0-15.629-12.717-28.346-28.348-28.346
		h-13.69V8.084c0-4.465-3.618-8.084-8.084-8.084H282.425c-4.466,0-8.084,3.62-8.084,8.084v20.322H28.869
		c-15.629,0-28.346,12.716-28.346,28.346v21.148v178.931v58.374v129.347v39.101C0.523,499.283,13.239,512,28.869,512h454.26
		c15.631,0,28.348-12.716,28.348-28.346V178.554c0-4.465-3.618-8.084-8.084-8.084c-4.466,0-8.084,3.62-8.084,8.084v305.099
		c0,6.714-5.463,12.178-12.179,12.178H28.869c-6.714,0-12.178-5.463-12.178-12.178v-31.016h20.322c4.465,0,8.084-3.62,8.084-8.084
		V315.206c0-4.465-3.62-8.084-8.084-8.084H16.691v-42.206h20.322c4.465,0,8.084-3.62,8.084-8.084V77.901
		c0-4.465-3.62-8.084-8.084-8.084H16.691V56.752c0-6.714,5.463-12.178,12.178-12.178h253.555h178.931h21.775
		c6.716,0,12.179,5.463,12.179,12.178V153.6C495.309,158.065,498.927,161.684,503.393,161.684z M28.929,323.29v113.179H16.691
		V323.29H28.929z M28.929,85.985v162.762H16.691V85.985C16.691,85.985,28.929,85.985,28.929,85.985z M290.509,28.406V16.168h162.762
		v12.237H290.509z"/>
	<path style="fill:#231F20;" d="M469.439,77.901c0-4.465-3.618-8.084-8.084-8.084H282.425c-4.466,0-8.084,3.62-8.084,8.084v178.931
		c0,4.465,3.618,8.084,8.084,8.084h178.931c4.466,0,8.084-3.62,8.084-8.084V77.901z M453.271,248.747H290.509V85.985h162.762
		V248.747z"/>
	<path style="fill:#231F20;" d="M308.496,185.354c-4.466,0-8.084,3.62-8.084,8.084c0,4.465,3.618,8.084,8.084,8.084h10.577V212.1
		c0,4.465,3.618,8.084,8.084,8.084h9.701v9.701c0,4.465,3.618,8.084,8.084,8.084s8.084-3.62,8.084-8.084v-9.701h10.779v9.701
		c0,4.465,3.618,8.084,8.084,8.084s8.084-3.62,8.084-8.084v-9.701h10.779v9.701c0,4.465,3.618,8.084,8.084,8.084
		c4.466,0,8.084-3.62,8.084-8.084v-9.701h9.701c4.466,0,8.084-3.62,8.084-8.084v-10.577h10.577c4.466,0,8.084-3.62,8.084-8.084
		c0-4.465-3.618-8.084-8.084-8.084h-10.577v-10.779h10.577c4.466,0,8.084-3.62,8.084-8.084c0-4.465-3.618-8.084-8.084-8.084h-10.577
		v-10.779h10.577c4.466,0,8.084-3.62,8.084-8.084c0-4.465-3.618-8.084-8.084-8.084h-10.577v-8.826c0-4.465-3.618-8.084-8.084-8.084
		h-9.701v-11.452c0-4.465-3.618-8.084-8.084-8.084c-4.466,0-8.084,3.62-8.084,8.084v11.452h-10.779v-11.452
		c0-4.465-3.618-8.084-8.084-8.084s-8.084,3.62-8.084,8.084v11.452h-10.779v-11.452c0-4.465-3.618-8.084-8.084-8.084
		s-8.084,3.62-8.084,8.084v11.452h-9.701c-4.466,0-8.084,3.62-8.084,8.084v8.826h-10.577c-4.466,0-8.084,3.62-8.084,8.084
		c0,4.465,3.618,8.084,8.084,8.084h10.577v10.779h-10.577c-4.466,0-8.084,3.62-8.084,8.084c0,4.465,3.618,8.084,8.084,8.084h10.577
		v10.779H308.496z M335.241,130.717h73.297v73.297h-73.297V130.717z"/>
	<path style="fill:#231F20;" d="M461.355,368.561c4.466,0,8.084-3.62,8.084-8.084v-45.272c0-4.465-3.618-8.084-8.084-8.084h-24.531
		v-8.382c0-4.465-3.618-8.084-8.084-8.084s-8.084,3.62-8.084,8.084v8.382H238.23c-4.465,0-8.084,3.62-8.084,8.084
		s3.62,8.084,8.084,8.084h182.426v29.103H176.528V323.29h36.91c4.465,0,8.084-3.62,8.084-8.084s-3.62-8.084-8.084-8.084h-36.91
		v-8.382c0-4.465-3.62-8.084-8.084-8.084c-4.465,0-8.084,3.62-8.084,8.084v8.382h-24.529c-4.465,0-8.084,3.62-8.084,8.084v45.272
		c0,4.465,3.62,8.084,8.084,8.084h24.529v22.636h-24.529c-4.465,0-8.084,3.62-8.084,8.084v45.272c0,4.465,3.62,8.084,8.084,8.084
		h24.529v7.778c0,4.465,3.62,8.084,8.084,8.084c4.465,0,8.084-3.62,8.084-8.084v-7.778h182.427c4.466,0,8.084-3.62,8.084-8.084
		c0-4.465-3.618-8.084-8.084-8.084H176.528v-29.103h244.128v29.103h-36.909c-4.466,0-8.084,3.62-8.084,8.084
		c0,4.465,3.618,8.084,8.084,8.084h36.909v7.778c0,4.465,3.618,8.084,8.084,8.084s8.084-3.62,8.084-8.084v-7.778h24.531
		c4.466,0,8.084-3.62,8.084-8.084v-45.272c0-4.465-3.618-8.084-8.084-8.084h-24.531v-22.636H461.355z M436.824,323.29h16.447v29.103
		h-16.447V323.29z M143.914,352.393V323.29h16.444v29.103H143.914z M160.359,436.469h-16.444v-29.103h16.444V436.469z
		 M453.271,407.366v29.103h-16.447v-29.103H453.271z M420.656,391.197H176.528v-22.636h244.128V391.197z"/>
	<path style="fill:#231F20;" d="M139.602,256.831c0,4.465,3.62,8.084,8.084,8.084c4.465,0,8.084-3.62,8.084-8.084v-144.55
		c0-4.465-3.62-8.084-8.084-8.084c-4.465,0-8.084,3.62-8.084,8.084V256.831z"/>
	<path style="fill:#231F20;" d="M147.687,97.011c4.465,0,8.084-3.62,8.084-8.084V77.901c0-4.465-3.62-8.084-8.084-8.084
		c-4.465,0-8.084,3.62-8.084,8.084v11.026C139.602,93.391,143.222,97.011,147.687,97.011z"/>
	<path style="fill:#231F20;" d="M204.342,256.831c0,4.465,3.62,8.084,8.084,8.084c4.465,0,8.084-3.62,8.084-8.084v-144.55
		c0-4.465-3.62-8.084-8.084-8.084c-4.465,0-8.084,3.62-8.084,8.084V256.831z"/>
	<path style="fill:#231F20;" d="M212.426,97.011c4.465,0,8.084-3.62,8.084-8.084V77.901c0-4.465-3.62-8.084-8.084-8.084
		c-4.465,0-8.084,3.62-8.084,8.084v11.026C204.342,93.391,207.961,97.011,212.426,97.011z"/>
	<path style="fill:#231F20;" d="M180.057,230.535c4.465,0,8.084-3.62,8.084-8.084V77.901c0-4.465-3.62-8.084-8.084-8.084
		c-4.465,0-8.084,3.62-8.084,8.084v144.55C171.973,226.915,175.592,230.535,180.057,230.535z"/>
	<path style="fill:#231F20;" d="M171.973,256.831c0,4.465,3.62,8.084,8.084,8.084c4.465,0,8.084-3.62,8.084-8.084v-11.026
		c0-4.465-3.62-8.084-8.084-8.084c-4.465,0-8.084,3.62-8.084,8.084V256.831z"/>
	<path style="fill:#231F20;" d="M244.795,230.535c4.465,0,8.084-3.62,8.084-8.084V77.901c0-4.465-3.62-8.084-8.084-8.084
		c-4.465,0-8.084,3.62-8.084,8.084v144.55C236.711,226.915,240.331,230.535,244.795,230.535z"/>
	<path style="fill:#231F20;" d="M236.711,256.831c0,4.465,3.62,8.084,8.084,8.084c4.465,0,8.084-3.62,8.084-8.084v-11.026
		c0-4.465-3.62-8.084-8.084-8.084c-4.465,0-8.084,3.62-8.084,8.084V256.831z"/>
	<path style="fill:#231F20;" d="M371.89,190.383c13.175,0,23.893-10.719,23.893-23.894c0-13.175-10.717-23.894-23.893-23.894
		c-13.176,0-23.895,10.719-23.895,23.894C347.995,179.665,358.714,190.383,371.89,190.383z M371.89,158.765
		c4.259,0,7.724,3.465,7.724,7.725c0,4.26-3.465,7.725-7.724,7.725c-4.26,0-7.726-3.465-7.726-7.725
		C364.163,162.231,367.63,158.765,371.89,158.765z"/>
</g>
<g style="opacity:0.2;">
	<rect x="282.419" y="77.899" style="fill:#231F20;" width="25.331" height="178.931"/>
</g>
<g style="opacity:0.2;">
	<rect x="135.826" y="315.209" style="fill:#231F20;" width="25.331" height="45.272"/>
</g>
<g style="opacity:0.2;">
	<rect x="327.152" y="122.632" style="fill:#231F20;" width="25.331" height="89.465"/>
</g>
<g style="opacity:0.1;">
	<rect x="282.419" y="8.084" style="fill:#231F20;" width="25.331" height="28.406"/>
</g>
<g style="opacity:0.2;">
	<rect x="135.826" y="399.285" style="fill:#231F20;" width="25.331" height="45.272"/>
</g>
<g style="opacity:0.2;">
	<path style="fill:#231F20;" d="M34.013,483.654v-28.406V439.46v-28.406V129.352v-28.406V85.158V56.752
		c0-11.191,9.072-20.262,20.262-20.262H28.869c-11.191,0-20.262,9.072-20.262,20.262v28.406v15.788v28.406v281.702v28.406v15.788
		v28.406c0,11.191,9.072,20.262,20.262,20.262h25.405C43.085,503.916,34.013,494.844,34.013,483.654z"/>
</g>
</svg>