<?xml version="1.0" encoding="utf-8"?>
<!-- Uploaded to: SVG Repo, www.svgrepo.com, Generator: SVG Repo Mixer Tools -->
<svg width="800px" height="800px" viewBox="0 0 64 64" xmlns="http://www.w3.org/2000/svg" xmlns:xlink="http://www.w3.org/1999/xlink">
  <defs>
    <clipPath id="clip-Artboard_1_1">
      <rect width="64" height="64"/>
    </clipPath>
  </defs>
  <g id="Artboard_1_1" data-name="Artboard 1 – 1" clip-path="url(#clip-Artboard_1_1)">
    <g id="mac">
      <path id="Path_836" data-name="Path 836" d="M2,13" fill="#1a2f4b"/>
      <path id="Path_837" data-name="Path 837" d="M3,38.824" fill="#0278ae"/>
      <g id="Group_1134" data-name="Group 1134">
        <path id="Path_838" data-name="Path 838" d="M2.583,37.8l58.24-.139.055-25.131-.912-.905-56.858.255" fill="#1a2f4b"/>
        <path id="Path_839" data-name="Path 839" d="M3.046,37.632l.157,5.1.775.808,55.749.009.819-.464L61,40.029v-2.7l-.345.755L3.5,37.8" fill="#51dacf"/>
        <path id="Path_840" data-name="Path 840" d="M29,44v5.324l-5.172-.315-1.392.487-.07,1.949.975.418,3.272.209,13.776-.2.983-.427.446-1-.794-1.161L39,49H35l.3-6H29" fill="#51dacf"/>
        <path id="Path_841" data-name="Path 841" d="M29,43h6l.384,2H29l-.3-1.695" fill="#47aed6"/>
        <path id="Path_842" data-name="Path 842" d="M22,50.338l20-.014-.938,1.253-.393.393L23.2,51.849" fill="#76f4e8"/>
        <path id="Path_843" data-name="Path 843" d="M60.779,38.768,2.878,38.7l.205-.9,57.767.047" fill="#76f4e8"/>
        <line id="Line_49" data-name="Line 49" y2="20" transform="translate(58.5 15)" fill="none" stroke="#ffffff" stroke-miterlimit="10" stroke-width="1" opacity="0.5"/>
        <line id="Line_50" data-name="Line 50" y2="20" transform="translate(56.5 15)" fill="none" stroke="#ffffff" stroke-miterlimit="10" stroke-width="1" opacity="0.5"/>
        <rect id="Rectangle_183" data-name="Rectangle 183" width="58.046" height="31.778" rx="1.291" transform="translate(2.977 11.789)" fill="none" stroke="#1a2f4b" stroke-miterlimit="10" stroke-width="1"/>
        <line id="Line_51" data-name="Line 51" y1="0.004" x2="58.663" transform="translate(2.669 37.824)" fill="none" stroke="#1a2f4b" stroke-miterlimit="10" stroke-width="0.75"/>
        <g id="Group_1133" data-name="Group 1133">
          <path id="Path_844" data-name="Path 844" d="M35.3,49.014v-5.38H28.7v5.38H23.61a1.43,1.43,0,0,0,0,2.86H40.39a1.43,1.43,0,1,0,0-2.86Z" fill="none" stroke="#1a2f4b" stroke-miterlimit="10" stroke-width="1"/>
        </g>
        <circle id="Ellipse_91" data-name="Ellipse 91" cx="1.193" cy="1.193" r="1.193" transform="translate(30.807 39.352)" fill="none" stroke="#76f4e8" stroke-miterlimit="10" stroke-width="0.75"/>
      </g>
    </g>
  </g>
</svg>